# xmcd
#
# Track frame offsets:
#	150
#	12107
#	26477
#	39509
#	56483
#	69872
#	83151
#	97735
#	114731
#	128952
#	142588
#	160122
#	171459
#	181797
#	195411
#	208798
#	227469
#	245532
#	263397
#	275722
#	287618
#	304120
#
# Disc length: 4263 seconds
#
# Revision: 0
# Processed by: cddbd v1.4PL0 Copyright (c) Steve Scherf et al.
# Submitted via: audiograbber 1.80
#
DISCID=1c10a516
DTITLE=Various Country Artists - Contemporary Country - The Late '70's
DYEAR=1900
DGENRE=
TTITLE0=Moe Bandy and Joe Stampley - Just Good Ol' Boys
TTITLE1=Hank Williams Jr. - Whiskey Bent And Hell Bound
TTITLE2=Merel Haggard - I'm Always On A Mountain When I Fall
TTITLE3=Conway Twitty - Don't Take It Away
TTITLE4=Crystal Gayle - Talking In Your Sleep
TTITLE5=Johnny Duncan - She Can Put Her Shoes Under My Bed (Anytime)
TTITLE6=Dolly Parton - It's All Wrong, But It's All Right
TTITLE7=T. G. Sheppard - Last Cheater's Waltz
TTITLE8=Loretta Lynn - She's Got You
TTITLE9=Waylon Jennings - Amanda
TTITLE10=Jerry Lee Lewis - Middle Age Crazy
TTITLE11=Don Williams - It Must Be Love
TTITLE12=The Statler Brothers - Do You Know You Are My Sunshine
TTITLE13=Crystal Gayle - Why Have You Left The One You Left Me For
TTITLE14=The Oak Ridge Boys - Y'All Come Back Saloon
TTITLE15=Gene Watson - Farewell Party
TTITLE16=Willie Nelson - Georgia On My Mind
TTITLE17=Linda Ronstadt - Blue Bayou
TTITLE18=Charlie Rich - Rollin' With The Flow
TTITLE19=John Conlee - Backside Of Thirty
TTITLE20=Anne Murray - You Needed Me
TTITLE21=Ronnie Milsap - Only One Love In My Life
EXTD=
EXTT0=
EXTT1=
EXTT2=
EXTT3=
EXTT4=
EXTT5=
EXTT6=
EXTT7=
EXTT8=
EXTT9=
EXTT10=
EXTT11=
EXTT12=
EXTT13=
EXTT14=
EXTT15=
EXTT16=
EXTT17=
EXTT18=
EXTT19=
EXTT20=
EXTT21=
PLAYORDER=
